<?xml version="1.0" encoding="utf-8"?>
<!-- Generator: Adobe Illustrator 16.0.0, SVG Export Plug-In . SVG Version: 6.00 Build 0)  -->
<!DOCTYPE svg PUBLIC "-//W3C//DTD SVG 1.1//EN" "http://www.w3.org/Graphics/SVG/1.1/DTD/svg11.dtd">
<svg version="1.1" id="Layer_1" xmlns="http://www.w3.org/2000/svg" xmlns:xlink="http://www.w3.org/1999/xlink" x="0px" y="0px"
	 width="123.328px" height="121.882px" viewBox="0 0 123.328 121.882" enable-background="new 0 0 123.328 121.882"
	 xml:space="preserve">
<g>
	<defs>
		<rect id="SVGID_1_" width="123.328" height="121.882"/>
	</defs>
	<clipPath id="SVGID_2_">
		<use xlink:href="#SVGID_1_"  overflow="visible"/>
	</clipPath>
	<path clip-path="url(#SVGID_2_)" fill="#231F20" d="M107.914,83.269c-8.498,0-15.412-6.913-15.412-15.41
		c0-8.499,6.914-15.413,15.412-15.413c8.5,0,15.414,6.914,15.414,15.413C123.328,76.355,116.414,83.269,107.914,83.269
		 M107.914,59.754c-4.469,0-8.104,3.635-8.104,8.104c0,4.468,3.636,8.103,8.104,8.103c4.47,0,8.105-3.635,8.105-8.103
		C116.02,63.389,112.384,59.754,107.914,59.754"/>
	<path clip-path="url(#SVGID_2_)" fill="#231F20" d="M15.415,83.269C6.915,83.269,0,76.355,0,67.858
		c0-8.499,6.915-15.413,15.415-15.413c8.498,0,15.411,6.914,15.411,15.413C30.826,76.355,23.913,83.269,15.415,83.269
		 M15.415,59.754c-4.47,0-8.107,3.635-8.107,8.104c0,4.468,3.637,8.103,8.107,8.103c4.468,0,8.103-3.635,8.103-8.103
		C23.518,63.389,19.883,59.754,15.415,59.754"/>
	<rect x="15.836" y="35.65" clip-path="url(#SVGID_2_)" fill="#FFFFFF" width="92.078" height="82.578"/>
	<path clip-path="url(#SVGID_2_)" fill="#231F20" d="M111.568,121.882H12.181V31.996h99.387V121.882z M19.49,114.574h84.77V39.304
		H19.49V114.574z"/>
	<path clip-path="url(#SVGID_2_)" fill="#FFFFFF" d="M32.963,70.883c0-3.34,2.711-6.051,6.055-6.051
		c3.346,0,6.057,2.711,6.057,6.051"/>
	<path clip-path="url(#SVGID_2_)" fill="#231F20" d="M48.729,70.883h-7.308c0-1.321-1.078-2.396-2.403-2.396
		c-1.324,0-2.401,1.075-2.401,2.396h-7.308c0-5.352,4.355-9.706,9.709-9.706C44.373,61.177,48.729,65.531,48.729,70.883"/>
	<path clip-path="url(#SVGID_2_)" fill="#FFFFFF" d="M82.474,70.883c0-3.34,2.711-6.051,6.055-6.051
		c3.347,0,6.055,2.711,6.055,6.051"/>
	<path clip-path="url(#SVGID_2_)" fill="#231F20" d="M98.237,70.883h-7.309c0-1.321-1.077-2.396-2.4-2.396s-2.4,1.075-2.4,2.396
		H78.82c0-5.352,4.354-9.706,9.708-9.706S98.237,65.531,98.237,70.883"/>
	<rect x="58.222" y="13.672" clip-path="url(#SVGID_2_)" fill="#231F20" width="7.308" height="21.978"/>
	<path clip-path="url(#SVGID_2_)" fill="#231F20" d="M72.283,20.815H51.469V0.001h20.814V20.815z M58.777,13.506h6.198V7.308h-6.198
		V13.506z"/>
	<rect x="15.415" y="90.965" clip-path="url(#SVGID_2_)" fill="#231F20" width="92.499" height="7.308"/>
</g>
</svg>
