<?xml version="1.0" encoding="utf-8"?>
<!-- Generator: Adobe Illustrator 19.1.0, SVG Export Plug-In . SVG Version: 6.00 Build 0)  -->
<svg version="1.1" id="Layer_1" xmlns="http://www.w3.org/2000/svg" xmlns:xlink="http://www.w3.org/1999/xlink" x="0px" y="0px"
	 width="15.4px" height="15px" viewBox="-238.2 325 15.4 15" style="enable-background:new -238.2 325 15.4 15;"
	 xml:space="preserve">
<style type="text/css">
	.st0{fill:#3BC3A3;}
	.st1{fill:#8151A8;}
</style>
<path class="st0" d="M-230.5,325c-4.3,0-7.7,3.5-7.7,7.7c0,3.4,2.2,6.3,5.3,7.3c0.4,0.1,0.5-0.2,0.5-0.4c0-0.2,0-0.7,0-1.3
	c-2.1,0.5-2.6-1-2.6-1c-0.4-0.9-0.9-1.1-0.9-1.1c-0.7-0.5,0.1-0.5,0.1-0.5c0.8,0.1,1.2,0.8,1.2,0.8c0.7,1.2,1.8,0.8,2.2,0.6
	c0.1-0.5,0.3-0.8,0.5-1c-1.7-0.2-3.5-0.9-3.5-3.8c0-0.8,0.3-1.5,0.8-2.1c-0.1-0.2-0.3-1,0.1-2c0,0,0.6-0.2,2.1,0.8
	c0.6-0.2,1.3-0.3,1.9-0.3c0.7,0,1.3,0.1,1.9,0.3c1.5-1,2.1-0.8,2.1-0.8c0.4,1.1,0.2,1.8,0.1,2c0.5,0.5,0.8,1.2,0.8,2.1
	c0,3-1.8,3.6-3.5,3.8c0.3,0.2,0.5,0.7,0.5,1.4c0,1,0,1.9,0,2.1c0,0.2,0.1,0.4,0.5,0.4c3.1-1,5.3-3.9,5.3-7.3
	C-222.8,328.4-226.3,325-230.5,325z"/>
<path class="st0" d="M-216.3,326.7c0,0,2.5,3.3,6.9,3.5c0,0-0.6-2,1.2-3.5s4.1-0.2,4.5,0.3c0,0,1.3-0.2,2.1-0.8c0,0-0.3,1.1-1.4,1.9
	c0,0,1.2-0.2,1.9-0.5c0,0-0.6,1-1.7,1.7c0,0,0.5,4.2-3.2,7.6c-3.5,3.4-9.4,2.7-11.5,0.9c0,0,2.9,0.3,4.9-1.4c0,0-2.4-0.1-3.1-2.3
	c0,0,1.2,0.1,1.4-0.1c0,0-2.6-0.6-2.6-3.3c0,0,0.8,0.4,1.5,0.4C-215.3,331.2-217.9,329.4-216.3,326.7z"/>
<g>
	<path class="st0" d="M-189.9,334.1c-0.2,0-0.4-0.2-0.4-0.4c0-0.3-0.2-0.5-0.5-0.5c-0.3,0-0.5,0.2-0.5,0.5c0,0.2-0.2,0.4-0.4,0.4
		s-0.4-0.2-0.4-0.4c0-0.6,0.5-1.1,1.1-1.1c0.6,0,1.1,0.5,1.1,1.1C-189.6,333.9-189.7,334.1-189.9,334.1z"/>
</g>
<g>
	<path class="st0" d="M-183.5,334.1c-0.2,0-0.4-0.2-0.4-0.4c0-0.3-0.2-0.5-0.5-0.5c-0.3,0-0.5,0.2-0.5,0.5c0,0.2-0.2,0.4-0.4,0.4
		s-0.4-0.2-0.4-0.4c0-0.6,0.5-1.1,1.1-1.1c0.6,0,1.1,0.5,1.1,1.1C-183.1,333.9-183.3,334.1-183.5,334.1z"/>
</g>
<path class="st0" d="M-179.5,333.4c0-0.9-0.7-1.7-1.5-1.9v-2.2c0-0.3-0.2-0.5-0.5-0.5h-5.5v-1.6h0.4c0.3,0,0.5-0.2,0.5-0.5v-1.8
	c0-0.3-0.2-0.5-0.5-0.5h-1.8c-0.3,0-0.5,0.2-0.5,0.5v1.8c0,0.3,0.2,0.5,0.5,0.5h0.4v1.6h-5.4c-0.3,0-0.5,0.2-0.5,0.5v2.2
	c-0.9,0.2-1.6,1-1.6,2s0.7,1.8,1.6,2v4.6c0,0.3,0.2,0.5,0.5,0.5h12c0.3,0,0.5-0.2,0.5-0.5v-4.7
	C-180.1,335.1-179.5,334.3-179.5,333.4z M-187.9,325.4h0.8v0.8h-0.8V325.4z M-194.6,333.4c0-0.4,0.3-0.8,0.6-1v1.9
	C-194.3,334.1-194.6,333.8-194.6,333.4z M-193,339.4v-9.8h11v2.1v0.1v0.1v3v0.1v0.1v4.5L-193,339.4L-193,339.4z M-181,334.3v-1.9
	c0.3,0.2,0.6,0.5,0.6,0.9C-180.5,333.7-180.7,334.1-181,334.3z"/>
<rect x="-193.6" y="336.4" class="st0" width="12.1" height="1"/>
<path class="st0" d="M-158.7,340.7h-7.9c-1.4,0-2.5-1.1-2.5-2.5v-7.9c0-1.4,1.1-2.5,2.5-2.5h7.9c1.4,0,2.5,1.1,2.5,2.5v7.9
	C-156.2,339.6-157.3,340.7-158.7,340.7z"/>
<circle class="st1" cx="-156.9" cy="328.8" r="3.4"/>
<path class="st0" d="M-137.8,340.5c-0.3,0-0.5-0.2-0.5-0.5c0-1.7-1.4-3.1-3.1-3.1c-0.3,0-0.5-0.2-0.5-0.5c0-0.3,0.2-0.5,0.5-0.5
	c2.3,0,4.1,1.9,4.1,4.1C-137.3,340.3-137.6,340.5-137.8,340.5z"/>
<path class="st0" d="M-132.6,340.5c-0.3,0-0.5-0.2-0.5-0.5c0-4.6-3.8-8.4-8.4-8.4c-0.3,0-0.5-0.2-0.5-0.5c0-0.3,0.2-0.5,0.5-0.5
	c5.2,0,9.4,4.2,9.4,9.4C-132.1,340.3-132.3,340.5-132.6,340.5z"/>
<path class="st0" d="M-127.8,340.5c-0.3,0-0.5-0.2-0.5-0.5c0-7.2-5.9-13.1-13.1-13.1c-0.3,0-0.5-0.2-0.5-0.5c0-0.3,0.2-0.5,0.5-0.5
	c7.8,0,14.1,6.3,14.1,14.1C-127.3,340.3-127.6,340.5-127.8,340.5z"/>
</svg>
